<svg clip-rule="evenodd" fill-rule="evenodd" height="1624" image-rendering="optimizeQuality" shape-rendering="geometricPrecision" text-rendering="geometricPrecision" width="1682" xmlns="http://www.w3.org/2000/svg"><path d="m10.5-.5h1296c121.17.833102 242.5 1.333102 364 1.5 3.97.96428 7.14 3.13094 9.5 6.5.17 5.5158.67 10.8491 1.5 16v35c-.83 4.8165-1.33 9.8165-1.5 15-1.98 3.2447-4.81 5.4114-8.5 6.5-529.33 1.4371-1058.665 1.9371-1588 1.5v1162c281.003-.41 562.003.09 843 1.5 7.274 3.48 10.107 9.32 8.5 17.5.809 18.02.476 36.02-1 54-.785 1.79-1.951 3.29-3.5 4.5-78.585 1.33-157.252 1.99-236 2-228.334.71-456.667 1.04-685 1-3.56621-.7-6.39954-2.53-8.5-5.5-.170105-9.51-.670105-18.84-1.5-28 0-418.667 0-837.333 0-1256 .829895-9.1577 1.329895-18.491 1.5-28 2.79005-2.96502 5.95672-5.29835 9.5-7z" fill="#0fb4fa" opacity=".95"/><g fill="#fdfffd"><path d="m338.5 203.5c52.797-5.019 92.63 14.981 119.5 60 8.961 18.389 11.461 37.556 7.5 57.5-12.243 5.705-24.41 11.538-36.5 17.5-2.121-5.473-3.787-11.14-5-17-2.421 1.461-4.921 2.794-7.5 4-2.256-18.643-4.422-37.31-6.5-56-2.415-11.414-9.248-18.581-20.5-21.5-28.707-6.342-48.873 3.824-60.5 30.5-15.148 53.107-19.481 107.107-13 162 2.323 20.637 8.823 39.804 19.5 57.5 43.105 19.296 72.938 6.796 89.5-37.5 3.923-19.587 4.423-39.253 1.5-59 13.979 2.796 27.979 5.462 42 8-1.333 10 3 14.333 13 13 7.375 65.427-20.625 106.594-84 123.5-70.177 15.945-127.343-4.222-171.5-60.5-30.234-60.486-34.568-122.819-13-187 16.896-41.229 46.062-70.062 87.5-86.5 12.695-3.303 25.362-6.136 38-8.5z" opacity=".985"/><path d="m501.5 209.5h94v13h13v115h61c0-42.667 0-85.333 0-128h95v13h13v322c-31.667 0-63.333 0-95 0 0-4.333 0-8.667 0-13-4.333 0-8.667 0-13 0 0-48.667 0-97.333 0-146-20.333 0-40.667 0-61 0v159c-31.667 0-63.333 0-95 0 0-4.333 0-8.667 0-13-4 0-8 0-12 0 0-107.333 0-214.667 0-322z" opacity=".989"/><path d="m815.5 209.5h97v13h13c-.573 9.149-.907 18.316-1 27.5.257 26.313 1.09 52.48 2.5 78.5 30.358-38.857 60.525-77.857 90.5-117 15.72-2.607 31.39-2.273 47 1-1.67 2.667-3.33 5.333-5 8 6.04 1.394 12.04 2.894 18 4.5-26.27 33.384-51.94 67.218-77 101.5 38.46 72.589 77.12 144.922 116 217-35.69 1.666-71.36 1.333-107-1-1.9-6.731-6.23-10.897-13-12.5-21.101-39.57-42.768-78.737-65-117.5-3.237 1.732-5.071 4.398-5.5 8-1.086 41.344-1.253 82.678-.5 124-32.333 0-64.667 0-97 0 0-4.333 0-8.667 0-13-4.333 0-8.667 0-13 0 0-107.333 0-214.667 0-322z" opacity=".988"/><path d="m1124.5 209.5h94v13h13v275h119v12h12v35c-75.33 0-150.67 0-226 0 0-4.333 0-8.667 0-13-4 0-8 0-12 0 0-107.333 0-214.667 0-322z" opacity=".991"/></g><path d="m949.5 1623.5c-151.333 0-302.667 0-454 0-38.498-.83-77.165-1.33-116-1.5-2.31-1.64-3.81-3.8-4.5-6.5-.667-22.33-.667-44.67 0-67 1.916-3.58 4.749-6.08 8.5-7.5 153.163-1.16 306.329-1.99 459.5-2.5 50.497.82 100.997 1.16 151.5 1 0-141.33 0-282.67 0-424-159.002.05-318.002-.45-477-1.5-5.073-1.41-8.573-4.57-10.5-9.5-1.092-76.83-1.592-153.661-1.5-230.5-.094-76.506.406-153.006 1.5-229.5 2.018-1.85 3.851-3.85 5.5-6 14.655-.833 29.322-1.333 44-1.5 68.5-.167 137-.333 205.5-.5 248.51.269 497.01 1.102 745.5 2.5 1.17 1.167 2.33 2.333 3.5 3.5 2 23.667 2 47.333 0 71-2.36 3.369-5.53 5.536-9.5 6.5-305.33 1.266-610.665 1.766-916 1.5v309c159.002-.15 318.002.35 477 1.5 3.89 2.22 6.72 5.39 8.5 9.5.33 8.67.67 17.33 1 26 .21 98.17.71 196.34 1.5 294.5-.71 67.17-1.54 134.33-2.5 201.5-.13 18.03-.8 36.03-2 54-1.05 1.59-2.21 3.09-3.5 4.5-38.84.17-77.502.67-116 1.5z" fill="#fdc624" opacity=".962"/><path d="m1296.5 784.5h62v13h12v37h123v13h13c.17 49.001 0 98.001-.5 147-.02 21.76-.69 43.42-2 65-6.86 12.52-17.36 20.02-31.5 22.5-34 1.68-68 2.18-102 1.5v29c20 .6 40 1.27 60 2 16.04-.34 32.04-1.17 48-2.5 16.1-4.26 26.43-14.43 31-30.5 3.84-1.48 7.84-2.32 12-2.5 6.66-.5 13.33-.67 20-.5-.24 4.08-.9 8.08-2 12 5 .67 10 1.33 15 2-3.7 25.91-14.7 48.07-33 66.5-6.68 3.51-13.68 6.17-21 8-48.62 2.96-97.29 3.3-146 1-17.21-1.35-31.04-8.85-41.5-22.5-5.34-6.67-9.67-14.01-13-22-2.11-13.25-3.28-26.58-3.5-40-40 0-80 0-120 0 0-4 0-8 0-12-4.33 0-8.67 0-13 0 0-79 0-158 0-237h133c0-16.667 0-33.333 0-50zm-59 106h59v42c-19.67 0-39.33 0-59 0 0-14 0-28 0-42zm133 0h62v42c-20.67 0-41.33 0-62 0 0-14 0-28 0-42zm-133 95h59v43c-19.67 0-39.33 0-59 0 0-14.33 0-28.667 0-43zm133 0h62v43c-20.67 0-41.33 0-62 0 0-14.33 0-28.667 0-43z" fill="#fdfffd" opacity=".988"/><path d="m200.5 1089.5c30.278-.89 42.111 13.44 35.5 43-9.737 16.57-23.57 21.07-41.5 13.5-14.391-10.79-18.225-24.62-11.5-41.5 4.504-6.68 10.337-11.68 17.5-15z" fill="#8ad4ff" opacity=".905"/><path d="m279.5 1089.5c28.999-1.17 41.166 12.49 36.5 41-1.975 7.98-6.808 13.48-14.5 16.5-34.42 4.58-47.253-9.92-38.5-43.5 4.174-6.35 9.674-11.02 16.5-14z" fill="#8ad4ff" opacity=".905"/><path d="m359.5 1089.5c30.763-.05 42.263 14.95 34.5 45-5.477 9.99-13.977 14.66-25.5 14-15.553.26-25.053-7.07-28.5-22-2.148-10.56-.148-20.23 6-29 4.481-2.82 8.981-5.49 13.5-8z" fill="#8ad4ff" opacity=".908"/><path d="m1405.5 1197.5c9.99-2.51 16.66.99 20 10.5 2.83 1.25 5.5 2.75 8 4.5 5.06 11.79 10.39 23.45 16 35 4.97.83 9.97 1.33 15 1.5 21.66.5 43.33.67 65 .5v13h12v42c-20.69-.23-41.35.27-62 1.5-1.66 1.44-2.32 3.28-2 5.5 4.81-.43 8.98.91 12.5 4 .8 3.21.3 6.21-1.5 9 .67.33 1.33.67 2 1 9.3.95 18.63 1.28 28 1v13h13c.21 71.34-.29 142.67-1.5 214-5.32 13.66-15.15 21.82-29.5 24.5-64.99 1.39-129.99 1.89-195 1.5 0-4 0-8 0-12-4.33 0-8.67 0-13 0 0-80.33 0-160.67 0-241 14.67.17 29.34 0 44-.5-1.31-3.8-1.31-7.64 0-11.5 4.5-3.08 9.17-5.92 14-8.5-15.64-1.27-31.31-1.77-47-1.5 0-4 0-8 0-12-4.33 0-8.67 0-13 0 0-14.33 0-28.67 0-43 31.68.36 63.35-.14 95-1.5-11.42-12-18.75-26.16-22-42.5 14.49-.76 28.49-3.43 42-8zm-28 107c10.67-.17 21.34 0 32 .5 6.76.2 13.42 1.03 20 2.5-6.83 16.33-13.67 32.67-20.5 49-7.86-16.5-16.53-32.5-26-48-1.32-.3-2.82-.47-4.5-.5-.84-1.01-1.17-2.18-1-3.5zm-21 62c9.37 14.72 18.37 29.72 27 45-8.48 15.63-16.98 31.3-25.5 47-1.44-30.64-1.94-61.3-1.5-92zm106 22c1.79 4.91 2.62 10.24 2.5 16 .96 20.4.63 40.73-1 61-6.12-12.55-11.96-25.21-17.5-38 5.62-12.9 10.95-25.9 16-39zm-45 80c14.83 16.33 30.33 32.33 46.5 48 1.32 3.19 1.82 6.52 1.5 10-33.02.4-66.02-.1-99-1.5 20.42-15.91 37.42-34.75 51-56.5z" fill="#fdfffd" opacity=".986"/><path d="m1155.5 1222.5h122v12h12c.17 74 0 148-.5 222-.45 40.02-1.45 80.02-3 120-6.99 11.03-17.16 16.86-30.5 17.5-15.82 1.51-29.82-2.83-42-13-5.44-7.61-11.78-14.44-19-20.5-11.64 14.97-24.97 28.31-40 40-11.03-7.7-20.36-17.03-28-28 14.38-27.64 23.21-56.97 26.5-88 1.22-30.98 1.88-61.98 2-93 .5-56.33.67-112.67.5-169zm61 55h10v45c-3.33 0-6.67 0-10 0 0-15 0-30 0-45zm0 98h10v41c-3.33 0-6.67 0-10 0 0-13.67 0-27.33 0-41zm0 94h10c.44 23.4-.56 46.74-3 70-6.46 1.14-12.8.48-19-2 8.25-21.9 12.25-44.57 12-68z" fill="#fdfffd" opacity=".991"/></svg>